<mxfile host="app.diagrams.net" modified="2024-06-12T12:55:55.435Z" agent="Mozilla/5.0 (Macintosh; Intel Mac OS X 10_15_7) AppleWebKit/537.36 (KHTML, like Gecko) Chrome/117.0.0.0 Safari/537.36" etag="TJIHejdY0PpJ_exqg59e" version="24.5.3" type="device">
  <diagram name="Page-1" id="lnrsdPn40qcqsZbx_0sn">
    <mxGraphModel dx="2208" dy="1902" grid="1" gridSize="10" guides="1" tooltips="1" connect="1" arrows="1" fold="1" page="1" pageScale="1" pageWidth="850" pageHeight="1100" math="0" shadow="0">
      <root>
        <mxCell id="0" />
        <mxCell id="1" parent="0" />
        <mxCell id="QPm-Pdk9cJPZGnmWrmcM-3" style="edgeStyle=orthogonalEdgeStyle;rounded=0;orthogonalLoop=1;jettySize=auto;html=1;" edge="1" parent="1" source="QPm-Pdk9cJPZGnmWrmcM-1" target="QPm-Pdk9cJPZGnmWrmcM-2">
          <mxGeometry relative="1" as="geometry" />
        </mxCell>
        <mxCell id="QPm-Pdk9cJPZGnmWrmcM-1" value="&lt;font style=&quot;font-size: 24px;&quot;&gt;1. Branch&lt;/font&gt;" style="shape=ellipse;html=1;dashed=0;whiteSpace=wrap;perimeter=ellipsePerimeter;" vertex="1" parent="1">
          <mxGeometry x="20" y="100" width="240" height="240" as="geometry" />
        </mxCell>
        <mxCell id="QPm-Pdk9cJPZGnmWrmcM-8" style="edgeStyle=orthogonalEdgeStyle;rounded=0;orthogonalLoop=1;jettySize=auto;html=1;" edge="1" parent="1" source="QPm-Pdk9cJPZGnmWrmcM-2" target="QPm-Pdk9cJPZGnmWrmcM-7">
          <mxGeometry relative="1" as="geometry" />
        </mxCell>
        <mxCell id="QPm-Pdk9cJPZGnmWrmcM-10" style="edgeStyle=orthogonalEdgeStyle;rounded=0;orthogonalLoop=1;jettySize=auto;html=1;" edge="1" parent="1" source="QPm-Pdk9cJPZGnmWrmcM-2" target="QPm-Pdk9cJPZGnmWrmcM-9">
          <mxGeometry relative="1" as="geometry" />
        </mxCell>
        <mxCell id="QPm-Pdk9cJPZGnmWrmcM-16" value="" style="edgeStyle=orthogonalEdgeStyle;rounded=0;orthogonalLoop=1;jettySize=auto;html=1;" edge="1" parent="1" source="QPm-Pdk9cJPZGnmWrmcM-2">
          <mxGeometry relative="1" as="geometry">
            <mxPoint x="250" y="220" as="targetPoint" />
          </mxGeometry>
        </mxCell>
        <mxCell id="QPm-Pdk9cJPZGnmWrmcM-2" value="1. Update" style="html=1;dashed=0;whiteSpace=wrap;" vertex="1" parent="1">
          <mxGeometry x="330" y="167.5" width="210" height="105" as="geometry" />
        </mxCell>
        <mxCell id="QPm-Pdk9cJPZGnmWrmcM-6" style="edgeStyle=orthogonalEdgeStyle;rounded=0;orthogonalLoop=1;jettySize=auto;html=1;" edge="1" parent="1" source="QPm-Pdk9cJPZGnmWrmcM-4" target="QPm-Pdk9cJPZGnmWrmcM-2">
          <mxGeometry relative="1" as="geometry" />
        </mxCell>
        <mxCell id="QPm-Pdk9cJPZGnmWrmcM-14" value="Text" style="edgeLabel;html=1;align=center;verticalAlign=middle;resizable=0;points=[];" vertex="1" connectable="0" parent="QPm-Pdk9cJPZGnmWrmcM-6">
          <mxGeometry x="-0.0933" y="2" relative="1" as="geometry">
            <mxPoint as="offset" />
          </mxGeometry>
        </mxCell>
        <mxCell id="QPm-Pdk9cJPZGnmWrmcM-4" value="name&lt;div&gt;phone&lt;/div&gt;&lt;div&gt;location&lt;/div&gt;&lt;div&gt;logo&lt;/div&gt;" style="shape=parallelogram;perimeter=parallelogramPerimeter;whiteSpace=wrap;html=1;dashed=0;" vertex="1" parent="1">
          <mxGeometry x="340" y="-40" width="200" height="100" as="geometry" />
        </mxCell>
        <mxCell id="QPm-Pdk9cJPZGnmWrmcM-11" style="edgeStyle=orthogonalEdgeStyle;rounded=0;orthogonalLoop=1;jettySize=auto;html=1;entryX=1;entryY=0.5;entryDx=0;entryDy=0;" edge="1" parent="1" source="QPm-Pdk9cJPZGnmWrmcM-7" target="QPm-Pdk9cJPZGnmWrmcM-9">
          <mxGeometry relative="1" as="geometry">
            <Array as="points">
              <mxPoint x="760" y="453" />
            </Array>
          </mxGeometry>
        </mxCell>
        <mxCell id="QPm-Pdk9cJPZGnmWrmcM-7" value="Table&lt;div&gt;Branch&lt;/div&gt;" style="shape=cylinder;whiteSpace=wrap;html=1;boundedLbl=1;backgroundOutline=1;" vertex="1" parent="1">
          <mxGeometry x="680" y="100" width="150" height="200" as="geometry" />
        </mxCell>
        <mxCell id="QPm-Pdk9cJPZGnmWrmcM-9" value="Notification" style="html=1;dashed=0;whiteSpace=wrap;" vertex="1" parent="1">
          <mxGeometry x="330" y="400" width="210" height="105" as="geometry" />
        </mxCell>
        <mxCell id="QPm-Pdk9cJPZGnmWrmcM-12" value="Firebase" style="shape=cloud;whiteSpace=wrap;html=1;" vertex="1" parent="1">
          <mxGeometry x="710" y="477" width="120" height="120" as="geometry" />
        </mxCell>
        <mxCell id="QPm-Pdk9cJPZGnmWrmcM-13" style="edgeStyle=orthogonalEdgeStyle;rounded=0;orthogonalLoop=1;jettySize=auto;html=1;entryX=0.142;entryY=0.842;entryDx=0;entryDy=0;entryPerimeter=0;" edge="1" parent="1" source="QPm-Pdk9cJPZGnmWrmcM-9" target="QPm-Pdk9cJPZGnmWrmcM-12">
          <mxGeometry relative="1" as="geometry">
            <Array as="points">
              <mxPoint x="440" y="571" />
            </Array>
          </mxGeometry>
        </mxCell>
        <mxCell id="QPm-Pdk9cJPZGnmWrmcM-36" style="edgeStyle=orthogonalEdgeStyle;rounded=0;orthogonalLoop=1;jettySize=auto;html=1;entryX=0.5;entryY=0;entryDx=0;entryDy=0;" edge="1" parent="1" source="QPm-Pdk9cJPZGnmWrmcM-19" target="QPm-Pdk9cJPZGnmWrmcM-35">
          <mxGeometry relative="1" as="geometry" />
        </mxCell>
        <mxCell id="QPm-Pdk9cJPZGnmWrmcM-19" value="1. Create" style="html=1;dashed=0;whiteSpace=wrap;" vertex="1" parent="1">
          <mxGeometry x="305" y="1000" width="210" height="105" as="geometry" />
        </mxCell>
        <mxCell id="QPm-Pdk9cJPZGnmWrmcM-20" value="Table&lt;div&gt;Branch&lt;/div&gt;" style="shape=cylinder;whiteSpace=wrap;html=1;boundedLbl=1;backgroundOutline=1;" vertex="1" parent="1">
          <mxGeometry x="695" y="1299" width="150" height="200" as="geometry" />
        </mxCell>
        <mxCell id="QPm-Pdk9cJPZGnmWrmcM-22" value="&lt;font style=&quot;font-size: 24px;&quot;&gt;2. User&lt;/font&gt;" style="shape=ellipse;html=1;dashed=0;whiteSpace=wrap;perimeter=ellipsePerimeter;" vertex="1" parent="1">
          <mxGeometry x="-10" y="1150" width="240" height="240" as="geometry" />
        </mxCell>
        <mxCell id="QPm-Pdk9cJPZGnmWrmcM-23" style="edgeStyle=orthogonalEdgeStyle;rounded=0;orthogonalLoop=1;jettySize=auto;html=1;entryX=0.513;entryY=-0.025;entryDx=0;entryDy=0;entryPerimeter=0;" edge="1" parent="1" source="QPm-Pdk9cJPZGnmWrmcM-1" target="QPm-Pdk9cJPZGnmWrmcM-22">
          <mxGeometry relative="1" as="geometry" />
        </mxCell>
        <mxCell id="QPm-Pdk9cJPZGnmWrmcM-24" value="Branch ID" style="edgeLabel;html=1;align=center;verticalAlign=middle;resizable=0;points=[];" vertex="1" connectable="0" parent="QPm-Pdk9cJPZGnmWrmcM-23">
          <mxGeometry x="-0.3486" y="-1" relative="1" as="geometry">
            <mxPoint as="offset" />
          </mxGeometry>
        </mxCell>
        <mxCell id="QPm-Pdk9cJPZGnmWrmcM-25" value="2. Update" style="html=1;dashed=0;whiteSpace=wrap;" vertex="1" parent="1">
          <mxGeometry x="310" y="1350" width="210" height="105" as="geometry" />
        </mxCell>
        <mxCell id="QPm-Pdk9cJPZGnmWrmcM-32" style="edgeStyle=orthogonalEdgeStyle;rounded=0;orthogonalLoop=1;jettySize=auto;html=1;" edge="1" parent="1" source="QPm-Pdk9cJPZGnmWrmcM-26">
          <mxGeometry relative="1" as="geometry">
            <mxPoint x="695" y="1400" as="targetPoint" />
          </mxGeometry>
        </mxCell>
        <mxCell id="QPm-Pdk9cJPZGnmWrmcM-26" value="3. Delete" style="html=1;dashed=0;whiteSpace=wrap;" vertex="1" parent="1">
          <mxGeometry x="310" y="1500" width="210" height="105" as="geometry" />
        </mxCell>
        <mxCell id="QPm-Pdk9cJPZGnmWrmcM-28" style="edgeStyle=orthogonalEdgeStyle;rounded=0;orthogonalLoop=1;jettySize=auto;html=1;entryX=0.005;entryY=0.59;entryDx=0;entryDy=0;entryPerimeter=0;" edge="1" parent="1" source="QPm-Pdk9cJPZGnmWrmcM-22" target="QPm-Pdk9cJPZGnmWrmcM-25">
          <mxGeometry relative="1" as="geometry">
            <Array as="points">
              <mxPoint x="160" y="1412" />
            </Array>
          </mxGeometry>
        </mxCell>
        <mxCell id="QPm-Pdk9cJPZGnmWrmcM-29" style="edgeStyle=orthogonalEdgeStyle;rounded=0;orthogonalLoop=1;jettySize=auto;html=1;entryX=0;entryY=0.667;entryDx=0;entryDy=0;entryPerimeter=0;" edge="1" parent="1" source="QPm-Pdk9cJPZGnmWrmcM-22" target="QPm-Pdk9cJPZGnmWrmcM-26">
          <mxGeometry relative="1" as="geometry">
            <Array as="points">
              <mxPoint x="110" y="1570" />
            </Array>
          </mxGeometry>
        </mxCell>
        <mxCell id="QPm-Pdk9cJPZGnmWrmcM-31" style="edgeStyle=orthogonalEdgeStyle;rounded=0;orthogonalLoop=1;jettySize=auto;html=1;entryX=-0.04;entryY=0.565;entryDx=0;entryDy=0;entryPerimeter=0;" edge="1" parent="1" source="QPm-Pdk9cJPZGnmWrmcM-25">
          <mxGeometry relative="1" as="geometry">
            <mxPoint x="689" y="1413" as="targetPoint" />
          </mxGeometry>
        </mxCell>
        <mxCell id="QPm-Pdk9cJPZGnmWrmcM-34" style="edgeStyle=orthogonalEdgeStyle;rounded=0;orthogonalLoop=1;jettySize=auto;html=1;" edge="1" parent="1" source="QPm-Pdk9cJPZGnmWrmcM-33" target="QPm-Pdk9cJPZGnmWrmcM-19">
          <mxGeometry relative="1" as="geometry" />
        </mxCell>
        <mxCell id="QPm-Pdk9cJPZGnmWrmcM-33" value="name&lt;div&gt;phone&lt;/div&gt;&lt;div&gt;gender&lt;/div&gt;&lt;div&gt;profile&lt;/div&gt;" style="shape=parallelogram;perimeter=parallelogramPerimeter;whiteSpace=wrap;html=1;dashed=0;" vertex="1" parent="1">
          <mxGeometry x="315" y="850" width="200" height="100" as="geometry" />
        </mxCell>
        <mxCell id="QPm-Pdk9cJPZGnmWrmcM-38" style="edgeStyle=orthogonalEdgeStyle;rounded=0;orthogonalLoop=1;jettySize=auto;html=1;" edge="1" parent="1" source="QPm-Pdk9cJPZGnmWrmcM-35">
          <mxGeometry relative="1" as="geometry">
            <mxPoint x="260" y="770" as="targetPoint" />
          </mxGeometry>
        </mxCell>
        <mxCell id="QPm-Pdk9cJPZGnmWrmcM-39" value="Alert DPL to user input" style="edgeLabel;html=1;align=center;verticalAlign=middle;resizable=0;points=[];" vertex="1" connectable="0" parent="QPm-Pdk9cJPZGnmWrmcM-38">
          <mxGeometry x="0.8004" y="-1" relative="1" as="geometry">
            <mxPoint as="offset" />
          </mxGeometry>
        </mxCell>
        <mxCell id="QPm-Pdk9cJPZGnmWrmcM-35" value="new phone != old phone" style="shape=rhombus;html=1;dashed=0;whiteSpace=wrap;perimeter=rhombusPerimeter;" vertex="1" parent="1">
          <mxGeometry x="325" y="1150" width="195" height="120" as="geometry" />
        </mxCell>
        <mxCell id="QPm-Pdk9cJPZGnmWrmcM-37" style="edgeStyle=orthogonalEdgeStyle;rounded=0;orthogonalLoop=1;jettySize=auto;html=1;entryX=0.367;entryY=0.005;entryDx=0;entryDy=0;entryPerimeter=0;" edge="1" parent="1" source="QPm-Pdk9cJPZGnmWrmcM-35" target="QPm-Pdk9cJPZGnmWrmcM-20">
          <mxGeometry relative="1" as="geometry" />
        </mxCell>
      </root>
    </mxGraphModel>
  </diagram>
</mxfile>
